# xmcd
#
# Track frame offsets:
#	150
#	15327
#	28385
#	50837
#	65167
#	86582
#	103535
#	116480
#	138675
#	155035
#	172487
#	187577
#
# Disc length: 2769 seconds
#
# Revision: 1
# Processed by: cddbd v1.4PL0 Copyright (c) Steve Scherf et al.
# Submitted via: audiograbber 1.81.02
#
DISCID=ac0acf0c
DTITLE=Doug Sahm - The Return of Wayne Douglas
DYEAR=1900
DGENRE=
TTITLE0=Beautiful Texas Sunshine
TTITLE1=Oh No!  Not Another One
TTITLE2=Love Minus Zero - No Limit
TTITLE3=You Was For Real
TTITLE4=Cowboy Payton Place
TTITLE5=They'll Never Take Her Love From Me
TTITLE6=Huggin' Thin Air
TTITLE7=Yesterday Got In The Way
TTITLE8=I Can't Go Back To Austin
TTITLE9=Dallas Alice
TTITLE10=I Don't Trust No One When It Comes To My Heart
TTITLE11=Texas Me
EXTD=
EXTT0=
EXTT1=
EXTT2=
EXTT3=
EXTT4=
EXTT5=
EXTT6=
EXTT7=
EXTT8=
EXTT9=
EXTT10=
EXTT11=
PLAYORDER=
